<?xml version="1.0" encoding="us-ascii" standalone="no"?><svg xmlns="http://www.w3.org/2000/svg" xmlns:xlink="http://www.w3.org/1999/xlink" contentStyleType="text/css" height="242px" preserveAspectRatio="none" style="width:669px;height:242px;background:#FFFFFF;" version="1.1" viewBox="0 0 669 242" width="669px" zoomAndPan="magnify"><defs/><g><!--class Memento--><g id="elem_Memento"><rect codeLine="5" fill="#F1F1F1" height="96.8906" id="Memento" rx="2.5" ry="2.5" style="stroke:#181818;stroke-width:0.5;" width="143" x="299" y="15"/><ellipse cx="332.9" cy="31" fill="#ADD1B2" rx="11" ry="11" style="stroke:#181818;stroke-width:1.0;"/><path d="M335.2438,26.6719 C334.3063,26.2344 333.7125,26.0938 332.8375,26.0938 C330.2125,26.0938 328.2125,28.1719 328.2125,30.8906 L328.2125,32.0156 C328.2125,34.5938 330.3219,36.4844 333.2125,36.4844 C334.4313,36.4844 335.5875,36.1875 336.3375,35.6406 C336.9156,35.2344 337.2438,34.7813 337.2438,34.3906 C337.2438,33.9375 336.8531,33.5469 336.3844,33.5469 C336.1656,33.5469 335.9625,33.625 335.775,33.8125 C335.3219,34.2969 335.3219,34.2969 335.1344,34.3906 C334.7125,34.6563 334.025,34.7813 333.2594,34.7813 C331.2125,34.7813 329.9156,33.6875 329.9156,31.9844 L329.9156,30.8906 C329.9156,29.1094 331.1656,27.7969 332.9,27.7969 C333.4781,27.7969 334.0875,27.9531 334.5563,28.2031 C335.0406,28.4844 335.2125,28.7031 335.3063,29.1094 C335.3688,29.5156 335.4,29.6406 335.5406,29.7656 C335.6813,29.9063 335.9156,30.0156 336.1344,30.0156 C336.4,30.0156 336.6656,29.875 336.8375,29.6563 C336.9469,29.5 336.9781,29.3125 336.9781,28.8906 L336.9781,27.4688 C336.9781,27.0313 336.9625,26.9063 336.8688,26.75 C336.7125,26.4844 336.4313,26.3438 336.1344,26.3438 C335.8375,26.3438 335.6344,26.4375 335.4156,26.75 L335.2438,26.6719 Z " fill="#000000"/><text fill="#000000" font-family="sans-serif" font-size="14" lengthAdjust="spacing" textLength="69" x="351.1" y="35.8467">Memento</text><line style="stroke:#181818;stroke-width:0.5;" x1="300" x2="441" y1="47" y2="47"/><rect fill="none" height="6" style="stroke:#C82930;stroke-width:1.0;" width="6" x="307" y="57.6484"/><text fill="#000000" font-family="sans-serif" font-size="14" lengthAdjust="spacing" textLength="38" x="319" y="63.9951">state</text><line style="stroke:#181818;stroke-width:0.5;" x1="300" x2="441" y1="71.2969" y2="71.2969"/><rect fill="#F24D5C" height="6" style="stroke:#C82930;stroke-width:1.0;" width="6" x="307" y="81.9453"/><text fill="#000000" font-family="sans-serif" font-size="14" lengthAdjust="spacing" textLength="117" x="319" y="88.292">Memento(state)</text><rect fill="#F24D5C" height="6" style="stroke:#C82930;stroke-width:1.0;" width="6" x="307" y="98.2422"/><text fill="#000000" font-family="sans-serif" font-size="14" lengthAdjust="spacing" textLength="75" x="319" y="104.5889">getState()</text></g><!--class Originator--><g id="elem_Originator"><rect codeLine="12" fill="#F1F1F1" height="96.8906" id="Originator" rx="2.5" ry="2.5" style="stroke:#181818;stroke-width:0.5;" width="185" x="477" y="15"/><ellipse cx="528.75" cy="31" fill="#ADD1B2" rx="11" ry="11" style="stroke:#181818;stroke-width:1.0;"/><path d="M531.0938,26.6719 C530.1563,26.2344 529.5625,26.0938 528.6875,26.0938 C526.0625,26.0938 524.0625,28.1719 524.0625,30.8906 L524.0625,32.0156 C524.0625,34.5938 526.1719,36.4844 529.0625,36.4844 C530.2813,36.4844 531.4375,36.1875 532.1875,35.6406 C532.7656,35.2344 533.0938,34.7813 533.0938,34.3906 C533.0938,33.9375 532.7031,33.5469 532.2344,33.5469 C532.0156,33.5469 531.8125,33.625 531.625,33.8125 C531.1719,34.2969 531.1719,34.2969 530.9844,34.3906 C530.5625,34.6563 529.875,34.7813 529.1094,34.7813 C527.0625,34.7813 525.7656,33.6875 525.7656,31.9844 L525.7656,30.8906 C525.7656,29.1094 527.0156,27.7969 528.75,27.7969 C529.3281,27.7969 529.9375,27.9531 530.4063,28.2031 C530.8906,28.4844 531.0625,28.7031 531.1563,29.1094 C531.2188,29.5156 531.25,29.6406 531.3906,29.7656 C531.5313,29.9063 531.7656,30.0156 531.9844,30.0156 C532.25,30.0156 532.5156,29.875 532.6875,29.6563 C532.7969,29.5 532.8281,29.3125 532.8281,28.8906 L532.8281,27.4688 C532.8281,27.0313 532.8125,26.9063 532.7188,26.75 C532.5625,26.4844 532.2813,26.3438 531.9844,26.3438 C531.6875,26.3438 531.4844,26.4375 531.2656,26.75 L531.0938,26.6719 Z " fill="#000000"/><text fill="#000000" font-family="sans-serif" font-size="14" lengthAdjust="spacing" textLength="73" x="549.25" y="35.8467">Originator</text><line style="stroke:#181818;stroke-width:0.5;" x1="478" x2="661" y1="47" y2="47"/><rect fill="none" height="6" style="stroke:#C82930;stroke-width:1.0;" width="6" x="485" y="57.6484"/><text fill="#000000" font-family="sans-serif" font-size="14" lengthAdjust="spacing" textLength="38" x="497" y="63.9951">state</text><line style="stroke:#181818;stroke-width:0.5;" x1="478" x2="661" y1="71.2969" y2="71.2969"/><ellipse cx="488" cy="84.9453" fill="#84BE84" rx="3" ry="3" style="stroke:#038048;stroke-width:1.0;"/><text fill="#000000" font-family="sans-serif" font-size="14" lengthAdjust="spacing" textLength="124" x="497" y="88.292">save() : Memento</text><ellipse cx="488" cy="101.2422" fill="#84BE84" rx="3" ry="3" style="stroke:#038048;stroke-width:1.0;"/><text fill="#000000" font-family="sans-serif" font-size="14" lengthAdjust="spacing" textLength="159" x="497" y="104.5889">restore(m : Memento)</text></g><!--class Caretaker--><g id="elem_Caretaker"><rect codeLine="19" fill="#F1F1F1" height="113.1875" id="Caretaker" rx="2.5" ry="2.5" style="stroke:#181818;stroke-width:0.5;" width="168" x="95.5" y="7"/><ellipse cx="139.3" cy="23" fill="#ADD1B2" rx="11" ry="11" style="stroke:#181818;stroke-width:1.0;"/><path d="M141.6438,18.6719 C140.7063,18.2344 140.1125,18.0938 139.2375,18.0938 C136.6125,18.0938 134.6125,20.1719 134.6125,22.8906 L134.6125,24.0156 C134.6125,26.5938 136.7219,28.4844 139.6125,28.4844 C140.8313,28.4844 141.9875,28.1875 142.7375,27.6406 C143.3156,27.2344 143.6438,26.7813 143.6438,26.3906 C143.6438,25.9375 143.2531,25.5469 142.7844,25.5469 C142.5656,25.5469 142.3625,25.625 142.175,25.8125 C141.7219,26.2969 141.7219,26.2969 141.5344,26.3906 C141.1125,26.6563 140.425,26.7813 139.6594,26.7813 C137.6125,26.7813 136.3156,25.6875 136.3156,23.9844 L136.3156,22.8906 C136.3156,21.1094 137.5656,19.7969 139.3,19.7969 C139.8781,19.7969 140.4875,19.9531 140.9563,20.2031 C141.4406,20.4844 141.6125,20.7031 141.7063,21.1094 C141.7688,21.5156 141.8,21.6406 141.9406,21.7656 C142.0813,21.9063 142.3156,22.0156 142.5344,22.0156 C142.8,22.0156 143.0656,21.875 143.2375,21.6563 C143.3469,21.5 143.3781,21.3125 143.3781,20.8906 L143.3781,19.4688 C143.3781,19.0313 143.3625,18.9063 143.2688,18.75 C143.1125,18.4844 142.8313,18.3438 142.5344,18.3438 C142.2375,18.3438 142.0344,18.4375 141.8156,18.75 L141.6438,18.6719 Z " fill="#000000"/><text fill="#000000" font-family="sans-serif" font-size="14" lengthAdjust="spacing" textLength="72" x="159.7" y="27.8467">Caretaker</text><line style="stroke:#181818;stroke-width:0.5;" x1="96.5" x2="262.5" y1="39" y2="39"/><rect fill="none" height="6" style="stroke:#C82930;stroke-width:1.0;" width="6" x="103.5" y="49.6484"/><text fill="#000000" font-family="sans-serif" font-size="14" lengthAdjust="spacing" textLength="71" x="115.5" y="55.9951">originator</text><rect fill="none" height="6" style="stroke:#C82930;stroke-width:1.0;" width="6" x="103.5" y="65.9453"/><text fill="#000000" font-family="sans-serif" font-size="14" lengthAdjust="spacing" textLength="142" x="115.5" y="72.292">history : Memento[]</text><line style="stroke:#181818;stroke-width:0.5;" x1="96.5" x2="262.5" y1="79.5938" y2="79.5938"/><ellipse cx="106.5" cy="93.2422" fill="#84BE84" rx="3" ry="3" style="stroke:#038048;stroke-width:1.0;"/><text fill="#000000" font-family="sans-serif" font-size="14" lengthAdjust="spacing" textLength="107" x="115.5" y="96.5889">doSomething()</text><ellipse cx="106.5" cy="109.5391" fill="#84BE84" rx="3" ry="3" style="stroke:#038048;stroke-width:1.0;"/><text fill="#000000" font-family="sans-serif" font-size="14" lengthAdjust="spacing" textLength="45" x="115.5" y="112.8857">undo()</text></g><g id="elem_GMN5"><path d="M6,187.5 L6,227.7656 A0,0 0 0 0 6,227.7656 L161,227.7656 A0,0 0 0 0 161,227.7656 L161,197.5 L151,187.5 L100.4244,187.5 L141.834,120.215 L92.4244,187.5 L6,187.5 A0,0 0 0 0 6,187.5 " fill="#FEFFDD" style="stroke:#181818;stroke-width:0.5;"/><path d="M151,187.5 L151,197.5 L161,197.5 L151,187.5 " fill="#FEFFDD" style="stroke:#181818;stroke-width:0.5;"/><text fill="#000000" font-family="sans-serif" font-size="13" lengthAdjust="spacing" textLength="113" x="12" y="204.5669">m = history.pop()</text><text fill="#000000" font-family="sans-serif" font-size="13" lengthAdjust="spacing" textLength="134" x="12" y="219.6997">originator.restore(m)</text></g><g id="elem_GMN8"><path d="M196.5,180 L196.5,235.3984 A0,0 0 0 0 196.5,235.3984 L354.5,235.3984 A0,0 0 0 0 354.5,235.3984 L354.5,190 L344.5,180 L261.461,180 L217.166,120.215 L253.461,180 L196.5,180 A0,0 0 0 0 196.5,180 " fill="#FEFFDD" style="stroke:#181818;stroke-width:0.5;"/><path d="M344.5,180 L344.5,190 L354.5,190 L344.5,180 " fill="#FEFFDD" style="stroke:#181818;stroke-width:0.5;"/><text fill="#000000" font-family="sans-serif" font-size="13" lengthAdjust="spacing" textLength="137" x="202.5" y="197.0669">m = originator.save()</text><text fill="#000000" font-family="sans-serif" font-size="13" lengthAdjust="spacing" textLength="102" x="202.5" y="212.1997">history.push(m)</text><text fill="#000000" font-family="sans-serif" font-size="13" lengthAdjust="spacing" textLength="130" x="202.5" y="227.3325">//originator.change()</text></g><!--reverse link Memento to Originator--><g id="link_Memento_Originator"><path codeLine="30" d="M447.19,63.5 C457.085,63.5 466.98,63.5 476.875,63.5 " fill="none" id="Memento-backto-Originator" style="stroke:#181818;stroke-width:1.0;stroke-dasharray:7.0,7.0;"/><polygon fill="#181818" points="442.016,63.5,451.016,67.5,447.016,63.5,451.016,59.5,442.016,63.5" style="stroke:#181818;stroke-width:1.0;"/></g><!--link Caretaker to Memento--><g id="link_Caretaker_Memento"><path codeLine="31" d="M276.937,63.5 C279.786,63.5 282.635,63.5 285.484,63.5 " fill="none" id="Caretaker-Memento" style="stroke:#181818;stroke-width:1.0;"/><polygon fill="none" points="263.809,63.5,269.809,67.5,275.809,63.5,269.809,59.5,263.809,63.5" style="stroke:#181818;stroke-width:1.0;"/><polygon fill="#181818" points="298.817,63.5,289.817,59.5,293.817,63.5,289.817,67.5,298.817,63.5" style="stroke:#181818;stroke-width:1.0;"/><line style="stroke:#181818;stroke-width:1.0;" x1="293.817" x2="285.817" y1="63.5" y2="63.5"/></g><!--SRC=[XP0zJyCm48Pd_2jkJ8JImbe1Gol6Yg5Zq-6Q74wKs1UTNKI5-E_OvBCiRBxNx_lSXsjgsw6WWGurxL5qRU7nGRaR_VNJarXiTzooW1Qy_Z5iMKgI_llSOj4eLRJe7Ep9aFMiljHT1iwZf_WOrEHNIAEYoHzYaQJgUyo-IHscGSzo4xy7Xn_129k97ZGX5uoKc5bUe7OevB6XWSGpELHL7QFNENWyHMB91pRagzhgC5KGBhRaVZxBdk3CthC1Vf_f6p3mFF9M7NT9cjkvsMeQCeL_68jGlsrk9-p5LO6Gs_LwuIegj3gUJmrBm5DsBD5LL9wMbvpw06Sluy8_]--></g></svg>