<?xml version="1.0" encoding="us-ascii" standalone="no"?><svg xmlns="http://www.w3.org/2000/svg" xmlns:xlink="http://www.w3.org/1999/xlink" contentStyleType="text/css" height="187px" preserveAspectRatio="none" style="width:751px;height:187px;background:#FFFFFF;" version="1.1" viewBox="0 0 751 187" width="751px" zoomAndPan="magnify"><defs/><g><!--class Client--><g id="elem_Client"><rect codeLine="5" fill="#F1F1F1" height="48" id="Client" rx="2.5" ry="2.5" style="stroke:#181818;stroke-width:0.5;" width="75" x="260.5" y="132"/><ellipse cx="275.5" cy="148" fill="#ADD1B2" rx="11" ry="11" style="stroke:#181818;stroke-width:1.0;"/><path d="M277.8438,143.6719 C276.9063,143.2344 276.3125,143.0938 275.4375,143.0938 C272.8125,143.0938 270.8125,145.1719 270.8125,147.8906 L270.8125,149.0156 C270.8125,151.5938 272.9219,153.4844 275.8125,153.4844 C277.0313,153.4844 278.1875,153.1875 278.9375,152.6406 C279.5156,152.2344 279.8438,151.7813 279.8438,151.3906 C279.8438,150.9375 279.4531,150.5469 278.9844,150.5469 C278.7656,150.5469 278.5625,150.625 278.375,150.8125 C277.9219,151.2969 277.9219,151.2969 277.7344,151.3906 C277.3125,151.6563 276.625,151.7813 275.8594,151.7813 C273.8125,151.7813 272.5156,150.6875 272.5156,148.9844 L272.5156,147.8906 C272.5156,146.1094 273.7656,144.7969 275.5,144.7969 C276.0781,144.7969 276.6875,144.9531 277.1563,145.2031 C277.6406,145.4844 277.8125,145.7031 277.9063,146.1094 C277.9688,146.5156 278,146.6406 278.1406,146.7656 C278.2813,146.9063 278.5156,147.0156 278.7344,147.0156 C279,147.0156 279.2656,146.875 279.4375,146.6563 C279.5469,146.5 279.5781,146.3125 279.5781,145.8906 L279.5781,144.4688 C279.5781,144.0313 279.5625,143.9063 279.4688,143.75 C279.3125,143.4844 279.0313,143.3438 278.7344,143.3438 C278.4375,143.3438 278.2344,143.4375 278.0156,143.75 L277.8438,143.6719 Z " fill="#000000"/><text fill="#000000" font-family="sans-serif" font-size="14" lengthAdjust="spacing" textLength="43" x="289.5" y="152.8467">Client</text><line style="stroke:#181818;stroke-width:0.5;" x1="261.5" x2="334.5" y1="164" y2="164"/><line style="stroke:#181818;stroke-width:0.5;" x1="261.5" x2="334.5" y1="172" y2="172"/></g><!--class Abspielgeraet--><g id="elem_Abspielgeraet"><rect codeLine="7" fill="#F1F1F1" height="48" id="Abspielgeraet" rx="2.5" ry="2.5" style="stroke:#181818;stroke-width:0.5;" width="134" x="190" y="7"/><ellipse cx="205" cy="23" fill="#ADD1B2" rx="11" ry="11" style="stroke:#181818;stroke-width:1.0;"/><path d="M207.3438,18.6719 C206.4063,18.2344 205.8125,18.0938 204.9375,18.0938 C202.3125,18.0938 200.3125,20.1719 200.3125,22.8906 L200.3125,24.0156 C200.3125,26.5938 202.4219,28.4844 205.3125,28.4844 C206.5313,28.4844 207.6875,28.1875 208.4375,27.6406 C209.0156,27.2344 209.3438,26.7813 209.3438,26.3906 C209.3438,25.9375 208.9531,25.5469 208.4844,25.5469 C208.2656,25.5469 208.0625,25.625 207.875,25.8125 C207.4219,26.2969 207.4219,26.2969 207.2344,26.3906 C206.8125,26.6563 206.125,26.7813 205.3594,26.7813 C203.3125,26.7813 202.0156,25.6875 202.0156,23.9844 L202.0156,22.8906 C202.0156,21.1094 203.2656,19.7969 205,19.7969 C205.5781,19.7969 206.1875,19.9531 206.6563,20.2031 C207.1406,20.4844 207.3125,20.7031 207.4063,21.1094 C207.4688,21.5156 207.5,21.6406 207.6406,21.7656 C207.7813,21.9063 208.0156,22.0156 208.2344,22.0156 C208.5,22.0156 208.7656,21.875 208.9375,21.6563 C209.0469,21.5 209.0781,21.3125 209.0781,20.8906 L209.0781,19.4688 C209.0781,19.0313 209.0625,18.9063 208.9688,18.75 C208.8125,18.4844 208.5313,18.3438 208.2344,18.3438 C207.9375,18.3438 207.7344,18.4375 207.5156,18.75 L207.3438,18.6719 Z " fill="#000000"/><text fill="#000000" font-family="sans-serif" font-size="14" lengthAdjust="spacing" textLength="102" x="219" y="27.8467">Abspielgeraet</text><line style="stroke:#181818;stroke-width:0.5;" x1="191" x2="323" y1="39" y2="39"/><line style="stroke:#181818;stroke-width:0.5;" x1="191" x2="323" y1="47" y2="47"/></g><!--class ListenAbspielgeraet--><g id="elem_ListenAbspielgeraet"><rect codeLine="10" fill="#F1F1F1" height="48" id="ListenAbspielgeraet" rx="2.5" ry="2.5" style="stroke:#181818;stroke-width:0.5;" width="178" x="7" y="132"/><ellipse cx="22" cy="148" fill="#ADD1B2" rx="11" ry="11" style="stroke:#181818;stroke-width:1.0;"/><path d="M24.3438,143.6719 C23.4063,143.2344 22.8125,143.0938 21.9375,143.0938 C19.3125,143.0938 17.3125,145.1719 17.3125,147.8906 L17.3125,149.0156 C17.3125,151.5938 19.4219,153.4844 22.3125,153.4844 C23.5313,153.4844 24.6875,153.1875 25.4375,152.6406 C26.0156,152.2344 26.3438,151.7813 26.3438,151.3906 C26.3438,150.9375 25.9531,150.5469 25.4844,150.5469 C25.2656,150.5469 25.0625,150.625 24.875,150.8125 C24.4219,151.2969 24.4219,151.2969 24.2344,151.3906 C23.8125,151.6563 23.125,151.7813 22.3594,151.7813 C20.3125,151.7813 19.0156,150.6875 19.0156,148.9844 L19.0156,147.8906 C19.0156,146.1094 20.2656,144.7969 22,144.7969 C22.5781,144.7969 23.1875,144.9531 23.6563,145.2031 C24.1406,145.4844 24.3125,145.7031 24.4063,146.1094 C24.4688,146.5156 24.5,146.6406 24.6406,146.7656 C24.7813,146.9063 25.0156,147.0156 25.2344,147.0156 C25.5,147.0156 25.7656,146.875 25.9375,146.6563 C26.0469,146.5 26.0781,146.3125 26.0781,145.8906 L26.0781,144.4688 C26.0781,144.0313 26.0625,143.9063 25.9688,143.75 C25.8125,143.4844 25.5313,143.3438 25.2344,143.3438 C24.9375,143.3438 24.7344,143.4375 24.5156,143.75 L24.3438,143.6719 Z " fill="#000000"/><text fill="#000000" font-family="sans-serif" font-size="14" lengthAdjust="spacing" textLength="146" x="36" y="152.8467">ListenAbspielgeraet</text><line style="stroke:#181818;stroke-width:0.5;" x1="8" x2="184" y1="164" y2="164"/><line style="stroke:#181818;stroke-width:0.5;" x1="8" x2="184" y1="172" y2="172"/></g><!--class CDSpieler--><g id="elem_CDSpieler"><rect codeLine="13" fill="#F1F1F1" height="48" id="CDSpieler" rx="2.5" ry="2.5" style="stroke:#181818;stroke-width:0.5;" width="104" x="640" y="7"/><ellipse cx="655" cy="23" fill="#ADD1B2" rx="11" ry="11" style="stroke:#181818;stroke-width:1.0;"/><path d="M657.3438,18.6719 C656.4063,18.2344 655.8125,18.0938 654.9375,18.0938 C652.3125,18.0938 650.3125,20.1719 650.3125,22.8906 L650.3125,24.0156 C650.3125,26.5938 652.4219,28.4844 655.3125,28.4844 C656.5313,28.4844 657.6875,28.1875 658.4375,27.6406 C659.0156,27.2344 659.3438,26.7813 659.3438,26.3906 C659.3438,25.9375 658.9531,25.5469 658.4844,25.5469 C658.2656,25.5469 658.0625,25.625 657.875,25.8125 C657.4219,26.2969 657.4219,26.2969 657.2344,26.3906 C656.8125,26.6563 656.125,26.7813 655.3594,26.7813 C653.3125,26.7813 652.0156,25.6875 652.0156,23.9844 L652.0156,22.8906 C652.0156,21.1094 653.2656,19.7969 655,19.7969 C655.5781,19.7969 656.1875,19.9531 656.6563,20.2031 C657.1406,20.4844 657.3125,20.7031 657.4063,21.1094 C657.4688,21.5156 657.5,21.6406 657.6406,21.7656 C657.7813,21.9063 658.0156,22.0156 658.2344,22.0156 C658.5,22.0156 658.7656,21.875 658.9375,21.6563 C659.0469,21.5 659.0781,21.3125 659.0781,20.8906 L659.0781,19.4688 C659.0781,19.0313 659.0625,18.9063 658.9688,18.75 C658.8125,18.4844 658.5313,18.3438 658.2344,18.3438 C657.9375,18.3438 657.7344,18.4375 657.5156,18.75 L657.3438,18.6719 Z " fill="#000000"/><text fill="#000000" font-family="sans-serif" font-size="14" lengthAdjust="spacing" textLength="72" x="669" y="27.8467">CDSpieler</text><line style="stroke:#181818;stroke-width:0.5;" x1="641" x2="743" y1="39" y2="39"/><line style="stroke:#181818;stroke-width:0.5;" x1="641" x2="743" y1="47" y2="47"/></g><!--class KassettenSpieler--><g id="elem_KassettenSpieler"><rect codeLine="16" fill="#F1F1F1" height="48" id="KassettenSpieler" rx="2.5" ry="2.5" style="stroke:#181818;stroke-width:0.5;" width="156" x="404" y="132"/><ellipse cx="419" cy="148" fill="#ADD1B2" rx="11" ry="11" style="stroke:#181818;stroke-width:1.0;"/><path d="M421.3438,143.6719 C420.4063,143.2344 419.8125,143.0938 418.9375,143.0938 C416.3125,143.0938 414.3125,145.1719 414.3125,147.8906 L414.3125,149.0156 C414.3125,151.5938 416.4219,153.4844 419.3125,153.4844 C420.5313,153.4844 421.6875,153.1875 422.4375,152.6406 C423.0156,152.2344 423.3438,151.7813 423.3438,151.3906 C423.3438,150.9375 422.9531,150.5469 422.4844,150.5469 C422.2656,150.5469 422.0625,150.625 421.875,150.8125 C421.4219,151.2969 421.4219,151.2969 421.2344,151.3906 C420.8125,151.6563 420.125,151.7813 419.3594,151.7813 C417.3125,151.7813 416.0156,150.6875 416.0156,148.9844 L416.0156,147.8906 C416.0156,146.1094 417.2656,144.7969 419,144.7969 C419.5781,144.7969 420.1875,144.9531 420.6563,145.2031 C421.1406,145.4844 421.3125,145.7031 421.4063,146.1094 C421.4688,146.5156 421.5,146.6406 421.6406,146.7656 C421.7813,146.9063 422.0156,147.0156 422.2344,147.0156 C422.5,147.0156 422.7656,146.875 422.9375,146.6563 C423.0469,146.5 423.0781,146.3125 423.0781,145.8906 L423.0781,144.4688 C423.0781,144.0313 423.0625,143.9063 422.9688,143.75 C422.8125,143.4844 422.5313,143.3438 422.2344,143.3438 C421.9375,143.3438 421.7344,143.4375 421.5156,143.75 L421.3438,143.6719 Z " fill="#000000"/><text fill="#000000" font-family="sans-serif" font-size="14" lengthAdjust="spacing" textLength="124" x="433" y="152.8467">KassettenSpieler</text><line style="stroke:#181818;stroke-width:0.5;" x1="405" x2="559" y1="164" y2="164"/><line style="stroke:#181818;stroke-width:0.5;" x1="405" x2="559" y1="172" y2="172"/></g><!--class IAbspielgeraetImplementierer--><g id="elem_IAbspielgeraetImplementierer"><rect codeLine="18" fill="#F1F1F1" height="48" id="IAbspielgeraetImplementierer" rx="2.5" ry="2.5" style="stroke:#181818;stroke-width:0.5;" width="246" x="359" y="7"/><ellipse cx="374" cy="23" fill="#B4A7E5" rx="11" ry="11" style="stroke:#181818;stroke-width:1.0;"/><path d="M374.9531,19.7813 L376.6719,19.7813 C377.0625,19.7813 377.25,19.75 377.375,19.6719 C377.6406,19.5156 377.7813,19.2344 377.7813,18.9375 C377.7813,18.6719 377.6719,18.4063 377.4375,18.2344 C377.2656,18.125 377.125,18.0938 376.6719,18.0938 L371.5313,18.0938 C371.0938,18.0938 370.9688,18.1094 370.8125,18.2031 C370.5625,18.3594 370.4063,18.6563 370.4063,18.9375 C370.4063,19.2188 370.5469,19.4688 370.7656,19.6406 C370.9219,19.75 371.1094,19.7813 371.5313,19.7813 L373.25,19.7813 L373.25,26.2969 L371.5313,26.2969 C371.0938,26.2969 370.9688,26.3125 370.8125,26.4219 C370.5625,26.5781 370.4063,26.8594 370.4063,27.1563 C370.4063,27.4063 370.5469,27.6719 370.7656,27.8281 C370.9219,27.9531 371.125,28 371.5313,28 L376.6719,28 C377.4219,28 377.7813,27.7188 377.7813,27.1563 C377.7813,26.875 377.6719,26.625 377.4375,26.4531 C377.2656,26.3281 377.125,26.2969 376.6719,26.2969 L374.9531,26.2969 L374.9531,19.7813 Z " fill="#000000"/><text fill="#000000" font-family="sans-serif" font-size="14" font-style="italic" lengthAdjust="spacing" textLength="214" x="388" y="27.8467">IAbspielgeraetImplementierer</text><line style="stroke:#181818;stroke-width:0.5;" x1="360" x2="604" y1="39" y2="39"/><line style="stroke:#181818;stroke-width:0.5;" x1="360" x2="604" y1="47" y2="47"/></g><!--reverse link IAbspielgeraetImplementierer to CDSpieler--><g id="link_IAbspielgeraetImplementierer_CDSpieler"><path codeLine="20" d="M625.076,31 C629.948,31 634.82,31 639.692,31 " fill="none" id="IAbspielgeraetImplementierer-backto-CDSpieler" style="stroke:#181818;stroke-width:1.0;"/><polygon fill="none" points="625.047,38,605.047,31,625.047,24,625.047,38" style="stroke:#181818;stroke-width:1.0;"/></g><!--reverse link IAbspielgeraetImplementierer to KassettenSpieler--><g id="link_IAbspielgeraetImplementierer_KassettenSpieler"><path codeLine="21" d="M482,75.172 C482,94.2934 482,116.0159 482,131.9684 " fill="none" id="IAbspielgeraetImplementierer-backto-KassettenSpieler" style="stroke:#181818;stroke-width:1.0;"/><polygon fill="none" points="475,75.135,482,55.135,489,75.135,475,75.135" style="stroke:#181818;stroke-width:1.0;"/></g><!--reverse link Abspielgeraet to ListenAbspielgeraet--><g id="link_Abspielgeraet_ListenAbspielgeraet"><path codeLine="23" d="M210.756,67.329 C183.558,88.1076 149.947,113.786 126.147,131.9684 " fill="none" id="Abspielgeraet-backto-ListenAbspielgeraet" style="stroke:#181818;stroke-width:1.0;"/><polygon fill="none" points="206.575,61.715,226.717,55.135,215.074,72.84,206.575,61.715" style="stroke:#181818;stroke-width:1.0;"/></g><!--reverse link Abspielgeraet to Client--><g id="link_Abspielgeraet_Client"><path codeLine="25" d="M266.309,59.928 C273.565,81.6964 283.519,111.5561 290.323,131.9684 " fill="none" id="Abspielgeraet-backto-Client" style="stroke:#181818;stroke-width:1.0;stroke-dasharray:7.0,7.0;"/><polygon fill="#181818" points="264.712,55.135,263.7642,64.9381,266.2936,59.8783,271.3534,62.4076,264.712,55.135" style="stroke:#181818;stroke-width:1.0;"/><text fill="#000000" font-family="sans-serif" font-size="13" lengthAdjust="spacing" textLength="39" x="280" y="98.0669">&#171;use&#187;</text></g><!--reverse link ListenAbspielgeraet to Client--><g id="link_ListenAbspielgeraet_Client"><path codeLine="26" d="M190.464,156 C215.237,156 240.537,156 260.368,156 " fill="none" id="ListenAbspielgeraet-backto-Client" style="stroke:#181818;stroke-width:1.0;stroke-dasharray:7.0,7.0;"/><polygon fill="#181818" points="185.188,156,194.188,160,190.188,156,194.188,152,185.188,156" style="stroke:#181818;stroke-width:1.0;"/><text fill="#000000" font-family="sans-serif" font-size="13" lengthAdjust="spacing" textLength="39" x="203.25" y="149.0669">&#171;use&#187;</text></g><!--link Abspielgeraet to IAbspielgeraetImplementierer--><g id="link_Abspielgeraet_IAbspielgeraetImplementierer"><path codeLine="28" d="M337.447,31 C340.11,31 342.772,31 345.435,31 " fill="none" id="Abspielgeraet-IAbspielgeraetImplementierer" style="stroke:#181818;stroke-width:1.0;"/><polygon fill="none" points="324.236,31,330.236,35,336.236,31,330.236,27,324.236,31" style="stroke:#181818;stroke-width:1.0;"/><polygon fill="#181818" points="358.747,31,349.747,27,353.747,31,349.747,35,358.747,31" style="stroke:#181818;stroke-width:1.0;"/><line style="stroke:#181818;stroke-width:1.0;" x1="353.747" x2="345.747" y1="31" y2="31"/></g><!--SRC=[XP1D2i8m48NtFKKk4D2jb89M5qLTkHGNqtQCmJG9amWA7jwKrc9Bg9j0tllU_Bcxr1O86cP1u158ICsMYyIDzDtJ8sbGkL66c21uJO2DeHgfiqi5rJr9AWNEiLn9rFxxMvVEIbG22J28lNgGpgEEU_dsrAf8Wx8F3_eG60ofmtHNg90Leo95OnKseRr4QhavbwLl_jFi7yeZOumY7HJTRCBnSmtkXlMblnLRiJHzECoo91AVvIUb3SzcB_81]--></g></svg>