<?xml version="1.0" encoding="us-ascii" standalone="no"?><svg xmlns="http://www.w3.org/2000/svg" xmlns:xlink="http://www.w3.org/1999/xlink" contentStyleType="text/css" height="451px" preserveAspectRatio="none" style="width:777px;height:451px;background:#FFFFFF;" version="1.1" viewBox="0 0 777 451" width="777px" zoomAndPan="magnify"><defs/><g><!--class Dialog--><g id="elem_Dialog"><rect codeLine="5" fill="#F1F1F1" height="96.8906" id="Dialog" rx="2.5" ry="2.5" style="stroke:#181818;stroke-width:0.5;" width="196" x="343.5" y="121"/><ellipse cx="414.75" cy="137" fill="#ADD1B2" rx="11" ry="11" style="stroke:#181818;stroke-width:1.0;"/><path d="M417.0938,132.6719 C416.1563,132.2344 415.5625,132.0938 414.6875,132.0938 C412.0625,132.0938 410.0625,134.1719 410.0625,136.8906 L410.0625,138.0156 C410.0625,140.5938 412.1719,142.4844 415.0625,142.4844 C416.2813,142.4844 417.4375,142.1875 418.1875,141.6406 C418.7656,141.2344 419.0938,140.7813 419.0938,140.3906 C419.0938,139.9375 418.7031,139.5469 418.2344,139.5469 C418.0156,139.5469 417.8125,139.625 417.625,139.8125 C417.1719,140.2969 417.1719,140.2969 416.9844,140.3906 C416.5625,140.6563 415.875,140.7813 415.1094,140.7813 C413.0625,140.7813 411.7656,139.6875 411.7656,137.9844 L411.7656,136.8906 C411.7656,135.1094 413.0156,133.7969 414.75,133.7969 C415.3281,133.7969 415.9375,133.9531 416.4063,134.2031 C416.8906,134.4844 417.0625,134.7031 417.1563,135.1094 C417.2188,135.5156 417.25,135.6406 417.3906,135.7656 C417.5313,135.9063 417.7656,136.0156 417.9844,136.0156 C418.25,136.0156 418.5156,135.875 418.6875,135.6563 C418.7969,135.5 418.8281,135.3125 418.8281,134.8906 L418.8281,133.4688 C418.8281,133.0313 418.8125,132.9063 418.7188,132.75 C418.5625,132.4844 418.2813,132.3438 417.9844,132.3438 C417.6875,132.3438 417.4844,132.4375 417.2656,132.75 L417.0938,132.6719 Z " fill="#000000"/><text fill="#000000" font-family="sans-serif" font-size="14" lengthAdjust="spacing" textLength="45" x="435.25" y="141.8467">Dialog</text><line style="stroke:#181818;stroke-width:0.5;" x1="344.5" x2="538.5" y1="153" y2="153"/><text fill="#000000" font-family="sans-serif" font-size="14" lengthAdjust="spacing" textLength="15" x="349.5" y="169.9951">...</text><line style="stroke:#181818;stroke-width:0.5;" x1="344.5" x2="538.5" y1="177.2969" y2="177.2969"/><ellipse cx="354.5" cy="190.9453" fill="#84BE84" rx="3" ry="3" style="stroke:#038048;stroke-width:1.0;"/><text fill="#000000" font-family="sans-serif" font-size="14" lengthAdjust="spacing" textLength="58" x="363.5" y="194.292">render()</text><ellipse cx="354.5" cy="207.2422" fill="#84BE84" rx="3" ry="3" style="stroke:#038048;stroke-width:1.0;"/><text fill="#000000" font-family="sans-serif" font-size="14" lengthAdjust="spacing" textLength="170" x="363.5" y="210.5889">createButton() : Button</text></g><g id="elem_GMN3"><path d="M324,6 L324,61.3984 A0,0 0 0 0 324,61.3984 L437.5,61.3984 L441.5,120.87 L445.5,61.3984 L559,61.3984 A0,0 0 0 0 559,61.3984 L559,16 L549,6 L324,6 A0,0 0 0 0 324,6 " fill="#FEFFDD" style="stroke:#181818;stroke-width:0.5;"/><path d="M549,6 L549,16 L559,16 L549,6 " fill="#FEFFDD" style="stroke:#181818;stroke-width:0.5;"/><text fill="#000000" font-family="sans-serif" font-size="13" lengthAdjust="spacing" textLength="214" x="330" y="23.0669">Button okButton = createButton()</text><text fill="#000000" font-family="sans-serif" font-size="13" lengthAdjust="spacing" textLength="189" x="330" y="38.1997">okButton.onClick(closeDialog)</text><text fill="#000000" font-family="sans-serif" font-size="13" lengthAdjust="spacing" textLength="113" x="330" y="53.3325">okButton.render()</text></g><!--class WindowsDialog--><g id="elem_WindowsDialog"><rect codeLine="14" fill="#F1F1F1" height="80.5938" id="WindowsDialog" rx="2.5" ry="2.5" style="stroke:#181818;stroke-width:0.5;" width="196" x="343.5" y="278"/><ellipse cx="383.7" cy="294" fill="#ADD1B2" rx="11" ry="11" style="stroke:#181818;stroke-width:1.0;"/><path d="M386.0438,289.6719 C385.1063,289.2344 384.5125,289.0938 383.6375,289.0938 C381.0125,289.0938 379.0125,291.1719 379.0125,293.8906 L379.0125,295.0156 C379.0125,297.5938 381.1219,299.4844 384.0125,299.4844 C385.2313,299.4844 386.3875,299.1875 387.1375,298.6406 C387.7156,298.2344 388.0438,297.7813 388.0438,297.3906 C388.0438,296.9375 387.6531,296.5469 387.1844,296.5469 C386.9656,296.5469 386.7625,296.625 386.575,296.8125 C386.1219,297.2969 386.1219,297.2969 385.9344,297.3906 C385.5125,297.6563 384.825,297.7813 384.0594,297.7813 C382.0125,297.7813 380.7156,296.6875 380.7156,294.9844 L380.7156,293.8906 C380.7156,292.1094 381.9656,290.7969 383.7,290.7969 C384.2781,290.7969 384.8875,290.9531 385.3563,291.2031 C385.8406,291.4844 386.0125,291.7031 386.1063,292.1094 C386.1688,292.5156 386.2,292.6406 386.3406,292.7656 C386.4813,292.9063 386.7156,293.0156 386.9344,293.0156 C387.2,293.0156 387.4656,292.875 387.6375,292.6563 C387.7469,292.5 387.7781,292.3125 387.7781,291.8906 L387.7781,290.4688 C387.7781,290.0313 387.7625,289.9063 387.6688,289.75 C387.5125,289.4844 387.2313,289.3438 386.9344,289.3438 C386.6375,289.3438 386.4344,289.4375 386.2156,289.75 L386.0438,289.6719 Z " fill="#000000"/><text fill="#000000" font-family="sans-serif" font-size="14" lengthAdjust="spacing" textLength="108" x="403.3" y="298.8467">WindowsDialog</text><line style="stroke:#181818;stroke-width:0.5;" x1="344.5" x2="538.5" y1="310" y2="310"/><text fill="#000000" font-family="sans-serif" font-size="14" lengthAdjust="spacing" textLength="15" x="349.5" y="326.9951">...</text><line style="stroke:#181818;stroke-width:0.5;" x1="344.5" x2="538.5" y1="334.2969" y2="334.2969"/><ellipse cx="354.5" cy="347.9453" fill="#84BE84" rx="3" ry="3" style="stroke:#038048;stroke-width:1.0;"/><text fill="#000000" font-family="sans-serif" font-size="14" lengthAdjust="spacing" textLength="170" x="363.5" y="351.292">createButton() : Button</text></g><!--class WebDialog--><g id="elem_WebDialog"><rect codeLine="20" fill="#F1F1F1" height="80.5938" id="WebDialog" rx="2.5" ry="2.5" style="stroke:#181818;stroke-width:0.5;" width="196" x="574.5" y="278"/><ellipse cx="629.25" cy="294" fill="#ADD1B2" rx="11" ry="11" style="stroke:#181818;stroke-width:1.0;"/><path d="M631.5938,289.6719 C630.6563,289.2344 630.0625,289.0938 629.1875,289.0938 C626.5625,289.0938 624.5625,291.1719 624.5625,293.8906 L624.5625,295.0156 C624.5625,297.5938 626.6719,299.4844 629.5625,299.4844 C630.7813,299.4844 631.9375,299.1875 632.6875,298.6406 C633.2656,298.2344 633.5938,297.7813 633.5938,297.3906 C633.5938,296.9375 633.2031,296.5469 632.7344,296.5469 C632.5156,296.5469 632.3125,296.625 632.125,296.8125 C631.6719,297.2969 631.6719,297.2969 631.4844,297.3906 C631.0625,297.6563 630.375,297.7813 629.6094,297.7813 C627.5625,297.7813 626.2656,296.6875 626.2656,294.9844 L626.2656,293.8906 C626.2656,292.1094 627.5156,290.7969 629.25,290.7969 C629.8281,290.7969 630.4375,290.9531 630.9063,291.2031 C631.3906,291.4844 631.5625,291.7031 631.6563,292.1094 C631.7188,292.5156 631.75,292.6406 631.8906,292.7656 C632.0313,292.9063 632.2656,293.0156 632.4844,293.0156 C632.75,293.0156 633.0156,292.875 633.1875,292.6563 C633.2969,292.5 633.3281,292.3125 633.3281,291.8906 L633.3281,290.4688 C633.3281,290.0313 633.3125,289.9063 633.2188,289.75 C633.0625,289.4844 632.7813,289.3438 632.4844,289.3438 C632.1875,289.3438 631.9844,289.4375 631.7656,289.75 L631.5938,289.6719 Z " fill="#000000"/><text fill="#000000" font-family="sans-serif" font-size="14" lengthAdjust="spacing" textLength="78" x="649.75" y="298.8467">WebDialog</text><line style="stroke:#181818;stroke-width:0.5;" x1="575.5" x2="769.5" y1="310" y2="310"/><text fill="#000000" font-family="sans-serif" font-size="14" lengthAdjust="spacing" textLength="15" x="580.5" y="326.9951">...</text><line style="stroke:#181818;stroke-width:0.5;" x1="575.5" x2="769.5" y1="334.2969" y2="334.2969"/><ellipse cx="585.5" cy="347.9453" fill="#84BE84" rx="3" ry="3" style="stroke:#038048;stroke-width:1.0;"/><text fill="#000000" font-family="sans-serif" font-size="14" lengthAdjust="spacing" textLength="170" x="594.5" y="351.292">createButton() : Button</text></g><!--class Button--><g id="elem_Button"><rect codeLine="26" fill="#F1F1F1" height="80.5938" id="Button" rx="2.5" ry="2.5" style="stroke:#181818;stroke-width:0.5;" width="89" x="203" y="129"/><ellipse cx="222.5" cy="145" fill="#B4A7E5" rx="11" ry="11" style="stroke:#181818;stroke-width:1.0;"/><path d="M223.4531,141.7813 L225.1719,141.7813 C225.5625,141.7813 225.75,141.75 225.875,141.6719 C226.1406,141.5156 226.2813,141.2344 226.2813,140.9375 C226.2813,140.6719 226.1719,140.4063 225.9375,140.2344 C225.7656,140.125 225.625,140.0938 225.1719,140.0938 L220.0313,140.0938 C219.5938,140.0938 219.4688,140.1094 219.3125,140.2031 C219.0625,140.3594 218.9063,140.6563 218.9063,140.9375 C218.9063,141.2188 219.0469,141.4688 219.2656,141.6406 C219.4219,141.75 219.6094,141.7813 220.0313,141.7813 L221.75,141.7813 L221.75,148.2969 L220.0313,148.2969 C219.5938,148.2969 219.4688,148.3125 219.3125,148.4219 C219.0625,148.5781 218.9063,148.8594 218.9063,149.1563 C218.9063,149.4063 219.0469,149.6719 219.2656,149.8281 C219.4219,149.9531 219.625,150 220.0313,150 L225.1719,150 C225.9219,150 226.2813,149.7188 226.2813,149.1563 C226.2813,148.875 226.1719,148.625 225.9375,148.4531 C225.7656,148.3281 225.625,148.2969 225.1719,148.2969 L223.4531,148.2969 L223.4531,141.7813 Z " fill="#000000"/><text fill="#000000" font-family="sans-serif" font-size="14" font-style="italic" lengthAdjust="spacing" textLength="47" x="237.5" y="149.8467">Button</text><line style="stroke:#181818;stroke-width:0.5;" x1="204" x2="291" y1="161" y2="161"/><line style="stroke:#181818;stroke-width:0.5;" x1="204" x2="291" y1="169" y2="169"/><ellipse cx="214" cy="182.6484" fill="#84BE84" rx="3" ry="3" style="stroke:#038048;stroke-width:1.0;"/><text fill="#000000" font-family="sans-serif" font-size="14" lengthAdjust="spacing" textLength="58" x="223" y="185.9951">render()</text><ellipse cx="214" cy="198.9453" fill="#84BE84" rx="3" ry="3" style="stroke:#038048;stroke-width:1.0;"/><text fill="#000000" font-family="sans-serif" font-size="14" lengthAdjust="spacing" textLength="63" x="223" y="202.292">onClick()</text></g><!--class WindowsButton--><g id="elem_WindowsButton"><rect codeLine="32" fill="#F1F1F1" height="48" id="WindowsButton" rx="2.5" ry="2.5" style="stroke:#181818;stroke-width:0.5;" width="145" x="7" y="294.5"/><ellipse cx="22" cy="310.5" fill="#ADD1B2" rx="11" ry="11" style="stroke:#181818;stroke-width:1.0;"/><path d="M24.3438,306.1719 C23.4063,305.7344 22.8125,305.5938 21.9375,305.5938 C19.3125,305.5938 17.3125,307.6719 17.3125,310.3906 L17.3125,311.5156 C17.3125,314.0938 19.4219,315.9844 22.3125,315.9844 C23.5313,315.9844 24.6875,315.6875 25.4375,315.1406 C26.0156,314.7344 26.3438,314.2813 26.3438,313.8906 C26.3438,313.4375 25.9531,313.0469 25.4844,313.0469 C25.2656,313.0469 25.0625,313.125 24.875,313.3125 C24.4219,313.7969 24.4219,313.7969 24.2344,313.8906 C23.8125,314.1563 23.125,314.2813 22.3594,314.2813 C20.3125,314.2813 19.0156,313.1875 19.0156,311.4844 L19.0156,310.3906 C19.0156,308.6094 20.2656,307.2969 22,307.2969 C22.5781,307.2969 23.1875,307.4531 23.6563,307.7031 C24.1406,307.9844 24.3125,308.2031 24.4063,308.6094 C24.4688,309.0156 24.5,309.1406 24.6406,309.2656 C24.7813,309.4063 25.0156,309.5156 25.2344,309.5156 C25.5,309.5156 25.7656,309.375 25.9375,309.1563 C26.0469,309 26.0781,308.8125 26.0781,308.3906 L26.0781,306.9688 C26.0781,306.5313 26.0625,306.4063 25.9688,306.25 C25.8125,305.9844 25.5313,305.8438 25.2344,305.8438 C24.9375,305.8438 24.7344,305.9375 24.5156,306.25 L24.3438,306.1719 Z " fill="#000000"/><text fill="#000000" font-family="sans-serif" font-size="14" lengthAdjust="spacing" textLength="113" x="36" y="315.3467">WindowsButton</text><line style="stroke:#181818;stroke-width:0.5;" x1="8" x2="151" y1="326.5" y2="326.5"/><line style="stroke:#181818;stroke-width:0.5;" x1="8" x2="151" y1="334.5" y2="334.5"/></g><g id="elem_GMN10"><path d="M332,419 L332,444.1328 A0,0 0 0 0 332,444.1328 L551,444.1328 A0,0 0 0 0 551,444.1328 L551,429 L541,419 L445.5,419 L441.5,359.26 L437.5,419 L332,419 A0,0 0 0 0 332,419 " fill="#FEFFDD" style="stroke:#181818;stroke-width:0.5;"/><path d="M541,419 L541,429 L551,429 L541,419 " fill="#FEFFDD" style="stroke:#181818;stroke-width:0.5;"/><text fill="#000000" font-family="sans-serif" font-size="13" font-weight="bold" lengthAdjust="spacing" textLength="84" x="338" y="436.0669">return new</text><text fill="#000000" font-family="sans-serif" font-size="13" lengthAdjust="spacing" textLength="110" x="426" y="436.0669">WindowsButton()</text></g><!--class HTMLButton--><g id="elem_HTMLButton"><rect codeLine="36" fill="#F1F1F1" height="48" id="HTMLButton" rx="2.5" ry="2.5" style="stroke:#181818;stroke-width:0.5;" width="121" x="187" y="294.5"/><ellipse cx="202" cy="310.5" fill="#ADD1B2" rx="11" ry="11" style="stroke:#181818;stroke-width:1.0;"/><path d="M204.3438,306.1719 C203.4063,305.7344 202.8125,305.5938 201.9375,305.5938 C199.3125,305.5938 197.3125,307.6719 197.3125,310.3906 L197.3125,311.5156 C197.3125,314.0938 199.4219,315.9844 202.3125,315.9844 C203.5313,315.9844 204.6875,315.6875 205.4375,315.1406 C206.0156,314.7344 206.3438,314.2813 206.3438,313.8906 C206.3438,313.4375 205.9531,313.0469 205.4844,313.0469 C205.2656,313.0469 205.0625,313.125 204.875,313.3125 C204.4219,313.7969 204.4219,313.7969 204.2344,313.8906 C203.8125,314.1563 203.125,314.2813 202.3594,314.2813 C200.3125,314.2813 199.0156,313.1875 199.0156,311.4844 L199.0156,310.3906 C199.0156,308.6094 200.2656,307.2969 202,307.2969 C202.5781,307.2969 203.1875,307.4531 203.6563,307.7031 C204.1406,307.9844 204.3125,308.2031 204.4063,308.6094 C204.4688,309.0156 204.5,309.1406 204.6406,309.2656 C204.7813,309.4063 205.0156,309.5156 205.2344,309.5156 C205.5,309.5156 205.7656,309.375 205.9375,309.1563 C206.0469,309 206.0781,308.8125 206.0781,308.3906 L206.0781,306.9688 C206.0781,306.5313 206.0625,306.4063 205.9688,306.25 C205.8125,305.9844 205.5313,305.8438 205.2344,305.8438 C204.9375,305.8438 204.7344,305.9375 204.5156,306.25 L204.3438,306.1719 Z " fill="#000000"/><text fill="#000000" font-family="sans-serif" font-size="14" lengthAdjust="spacing" textLength="89" x="216" y="315.3467">HTMLButton</text><line style="stroke:#181818;stroke-width:0.5;" x1="188" x2="307" y1="326.5" y2="326.5"/><line style="stroke:#181818;stroke-width:0.5;" x1="188" x2="307" y1="334.5" y2="334.5"/></g><!--reverse link Button to WindowsButton--><g id="link_Button_WindowsButton"><path codeLine="38" d="M187.844,222.699 C159.815,247.225 127.827,275.214 105.916,294.386 " fill="none" id="Button-backto-WindowsButton" style="stroke:#181818;stroke-width:1.0;stroke-dasharray:7.0,7.0;"/><polygon fill="none" points="183.259,217.409,202.92,209.507,192.478,227.946,183.259,217.409" style="stroke:#181818;stroke-width:1.0;"/></g><!--reverse link Button to HTMLButton--><g id="link_Button_HTMLButton"><path codeLine="39" d="M247.5,230.528 C247.5,252.929 247.5,277.058 247.5,294.205 " fill="none" id="Button-backto-HTMLButton" style="stroke:#181818;stroke-width:1.0;stroke-dasharray:7.0,7.0;"/><polygon fill="none" points="240.5,230.28,247.5,210.28,254.5,230.28,240.5,230.28" style="stroke:#181818;stroke-width:1.0;"/></g><!--reverse link Button to Dialog--><g id="link_Button_Dialog"><path codeLine="41" d="M297.393,169.5 C312.675,169.5 327.956,169.5 343.237,169.5 " fill="none" id="Button-backto-Dialog" style="stroke:#181818;stroke-width:1.0;stroke-dasharray:7.0,7.0;"/><polygon fill="#181818" points="292.211,169.5,301.211,173.5,297.211,169.5,301.211,165.5,292.211,169.5" style="stroke:#181818;stroke-width:1.0;"/></g><!--reverse link Dialog to WindowsDialog--><g id="link_Dialog_WindowsDialog"><path codeLine="43" d="M441.5,238.337 C441.5,251.876 441.5,265.673 441.5,277.876 " fill="none" id="Dialog-backto-WindowsDialog" style="stroke:#181818;stroke-width:1.0;"/><polygon fill="none" points="434.5,238.227,441.5,218.227,448.5,238.227,434.5,238.227" style="stroke:#181818;stroke-width:1.0;"/></g><!--reverse link Dialog to WebDialog--><g id="link_Dialog_WebDialog"><path codeLine="44" d="M533.252,228.888 C559.02,245.285 586.436,262.732 610.065,277.769 " fill="none" id="Dialog-backto-WebDialog" style="stroke:#181818;stroke-width:1.0;"/><polygon fill="none" points="529.295,234.667,516.18,218.024,536.811,222.856,529.295,234.667" style="stroke:#181818;stroke-width:1.0;"/></g><!--SRC=[bL6nJiCm49thhxWn4Kg0jGeTMf0Ow8R400mNvngikBx8TbLGuTz9vBWqeK9YyldUlNVFpwvHfaMBMsYnfZNQMXculX9krBzxzsGDwXLhjb1R_9WCBDbMP0DSQfID45AZSt2hK7Cj3cAMvxcONO0bqqqcQLzBI-XfkVEUJPB2748fleGmx0ayjy2RGIEYmCrGt4m4Nao4SZOhhMIJICsE0lyKFfeON3ufK_7U_JBxXy61IEL_ICfqEMvGKkmTff54u-d9Zc1kO8HaIkukspwSaVKv5EN2ajzP0uRsnMMv6DD_ddp_k7w8aaEUnMVsNA5xe-ercsmzDt5EuGZ7ZnVXx9dP9EOH4dFy1W00]--></g></svg>