<?xml version="1.0" encoding="us-ascii" standalone="no"?><svg xmlns="http://www.w3.org/2000/svg" xmlns:xlink="http://www.w3.org/1999/xlink" contentStyleType="text/css" height="332px" preserveAspectRatio="none" style="width:790px;height:332px;background:#FFFFFF;" version="1.1" viewBox="0 0 790 332" width="790px" zoomAndPan="magnify"><defs/><g><!--cluster Subsystem--><g id="cluster_Subsystem"><path d="M32.4574,203.0195 C44.7508,178.2795 69.0223,181.4284 81.9524,202.3289 C99.5149,178.1121 120.5328,177.5425 138.5904,201.7499 C154.3943,177.9983 170.8703,177.3626 186.6873,201.7369 C198.5158,173.9824 223.8998,166.9161 243.4898,193.645 C258.1465,169.937 276.3211,171.8966 292.3146,192.1607 C305.8963,164.5564 328.7268,165.9904 344.0054,190.4768 C363.7276,159.4847 387.801,169.0377 403.8932,194.3386 C414.4721,170.3947 434.7392,170.6273 448.9323,190.6349 C471.3379,169.2128 489.8873,167.2254 506.8109,196.8506 C521.1651,171.8563 542.8167,171.8488 556.0658,197.9165 C569.7359,176.0096 595.4785,170.3151 608.8731,198.2087 C630.2137,176.2607 649.9769,175.3594 667.3108,202.9365 C680.0703,172.3654 703.3768,176.2616 721.6755,197.0762 C736.2851,171.3785 758.4752,172.3695 771.1432,198.9147 C780.1115,206.0376 779.8336,214.0748 769.1767,219.305 C780.7367,224.6148 780.8445,230.9955 772.8644,239.8181 C781.2475,247.9304 779.6807,255.3114 769.6385,260.5578 C783.1717,266.4192 782.983,279.5129 771.4493,287.0854 C752.8297,311.8333 735.0114,316.0847 716.1105,287.3766 C699.8328,312.8482 683.0702,310.9951 664.1137,290.4004 C647.8919,312.788 631.317,313.0415 615.9402,289.5138 C601.3232,321.9717 577.4574,317.2338 557.4286,295.3397 C540.0332,315.0356 522.3028,313.7729 509.6892,290.0787 C489.7564,319.209 471.4201,319.6587 450.8177,290.758 C438.9596,313.9292 420.4138,315.3836 404.9207,294.5493 C388.2196,322.0098 371.6739,321.0842 351.4068,298.3513 C332.2504,321.1825 309.6707,325.799 294.3563,294.3157 C274.6991,321.7381 258.1156,322.1757 239.5942,293.2126 C225.6748,319.5422 200.5732,313.1459 188.4234,291.3317 C171.8457,311.9578 147.3233,313.573 135.7225,285.901 C122.3774,313.6559 99.6219,311.0702 82.4433,290.092 C63.4566,314.8609 40.0428,307.828 27.5294,282.9342 C17.5607,281.3126 14.0956,271.9447 20.1349,264.0536 C8.1795,258.5142 6,251.7354 16.395,242.3455 C8.547,234.9652 7.5627,228.3505 18.2134,222.6809 C13.8606,209.5877 18.4955,202.8443 32.4574,203.0195 " fill="none" style="stroke:#181818;stroke-width:1.0;"/><text fill="#000000" font-family="sans-serif" font-size="14" font-weight="bold" lengthAdjust="spacing" textLength="89" x="351.0083" y="215.9951">Subsystem</text></g><!--class SubsystemClass1--><g id="elem_SubsystemClass1"><rect codeLine="21" fill="#F1F1F1" height="48" id="SubsystemClass1" rx="2.5" ry="2.5" style="stroke:#181818;stroke-width:0.5;" width="156" x="603.5083" y="225"/><ellipse cx="618.5083" cy="241" fill="#ADD1B2" rx="11" ry="11" style="stroke:#181818;stroke-width:1.0;"/><path d="M620.852,236.6719 C619.9145,236.2344 619.3208,236.0938 618.4458,236.0938 C615.8208,236.0938 613.8208,238.1719 613.8208,240.8906 L613.8208,242.0156 C613.8208,244.5938 615.9302,246.4844 618.8208,246.4844 C620.0395,246.4844 621.1958,246.1875 621.9458,245.6406 C622.5239,245.2344 622.852,244.7813 622.852,244.3906 C622.852,243.9375 622.4614,243.5469 621.9927,243.5469 C621.7739,243.5469 621.5708,243.625 621.3833,243.8125 C620.9302,244.2969 620.9302,244.2969 620.7427,244.3906 C620.3208,244.6563 619.6333,244.7813 618.8677,244.7813 C616.8208,244.7813 615.5239,243.6875 615.5239,241.9844 L615.5239,240.8906 C615.5239,239.1094 616.7739,237.7969 618.5083,237.7969 C619.0864,237.7969 619.6958,237.9531 620.1645,238.2031 C620.6489,238.4844 620.8208,238.7031 620.9145,239.1094 C620.977,239.5156 621.0083,239.6406 621.1489,239.7656 C621.2895,239.9063 621.5239,240.0156 621.7427,240.0156 C622.0083,240.0156 622.2739,239.875 622.4458,239.6563 C622.5552,239.5 622.5864,239.3125 622.5864,238.8906 L622.5864,237.4688 C622.5864,237.0313 622.5708,236.9063 622.477,236.75 C622.3208,236.4844 622.0395,236.3438 621.7427,236.3438 C621.4458,236.3438 621.2427,236.4375 621.0239,236.75 L620.852,236.6719 Z " fill="#000000"/><text fill="#000000" font-family="sans-serif" font-size="14" lengthAdjust="spacing" textLength="124" x="632.5083" y="245.8467">SubsystemClass1</text><line style="stroke:#181818;stroke-width:0.5;" x1="604.5083" x2="758.5083" y1="257" y2="257"/><line style="stroke:#181818;stroke-width:0.5;" x1="604.5083" x2="758.5083" y1="265" y2="265"/></g><!--class SubsystemClass2--><g id="elem_SubsystemClass2"><rect codeLine="22" fill="#F1F1F1" height="48" id="SubsystemClass2" rx="2.5" ry="2.5" style="stroke:#181818;stroke-width:0.5;" width="155" x="222.0083" y="225"/><ellipse cx="237.0083" cy="241" fill="#ADD1B2" rx="11" ry="11" style="stroke:#181818;stroke-width:1.0;"/><path d="M239.352,236.6719 C238.4145,236.2344 237.8208,236.0938 236.9458,236.0938 C234.3208,236.0938 232.3208,238.1719 232.3208,240.8906 L232.3208,242.0156 C232.3208,244.5938 234.4302,246.4844 237.3208,246.4844 C238.5395,246.4844 239.6958,246.1875 240.4458,245.6406 C241.0239,245.2344 241.352,244.7813 241.352,244.3906 C241.352,243.9375 240.9614,243.5469 240.4927,243.5469 C240.2739,243.5469 240.0708,243.625 239.8833,243.8125 C239.4302,244.2969 239.4302,244.2969 239.2427,244.3906 C238.8208,244.6563 238.1333,244.7813 237.3677,244.7813 C235.3208,244.7813 234.0239,243.6875 234.0239,241.9844 L234.0239,240.8906 C234.0239,239.1094 235.2739,237.7969 237.0083,237.7969 C237.5864,237.7969 238.1958,237.9531 238.6645,238.2031 C239.1489,238.4844 239.3208,238.7031 239.4145,239.1094 C239.477,239.5156 239.5083,239.6406 239.6489,239.7656 C239.7895,239.9063 240.0239,240.0156 240.2427,240.0156 C240.5083,240.0156 240.7739,239.875 240.9458,239.6563 C241.0552,239.5 241.0864,239.3125 241.0864,238.8906 L241.0864,237.4688 C241.0864,237.0313 241.0708,236.9063 240.977,236.75 C240.8208,236.4844 240.5395,236.3438 240.2427,236.3438 C239.9458,236.3438 239.7427,236.4375 239.5239,236.75 L239.352,236.6719 Z " fill="#000000"/><text fill="#000000" font-family="sans-serif" font-size="14" lengthAdjust="spacing" textLength="123" x="251.0083" y="245.8467">SubsystemClass2</text><line style="stroke:#181818;stroke-width:0.5;" x1="223.0083" x2="376.0083" y1="257" y2="257"/><line style="stroke:#181818;stroke-width:0.5;" x1="223.0083" x2="376.0083" y1="265" y2="265"/></g><!--class SubsystemClass3--><g id="elem_SubsystemClass3"><rect codeLine="23" fill="#F1F1F1" height="48" id="SubsystemClass3" rx="2.5" ry="2.5" style="stroke:#181818;stroke-width:0.5;" width="156" x="412.5083" y="225"/><ellipse cx="427.5083" cy="241" fill="#ADD1B2" rx="11" ry="11" style="stroke:#181818;stroke-width:1.0;"/><path d="M429.852,236.6719 C428.9145,236.2344 428.3208,236.0938 427.4458,236.0938 C424.8208,236.0938 422.8208,238.1719 422.8208,240.8906 L422.8208,242.0156 C422.8208,244.5938 424.9302,246.4844 427.8208,246.4844 C429.0395,246.4844 430.1958,246.1875 430.9458,245.6406 C431.5239,245.2344 431.852,244.7813 431.852,244.3906 C431.852,243.9375 431.4614,243.5469 430.9927,243.5469 C430.7739,243.5469 430.5708,243.625 430.3833,243.8125 C429.9302,244.2969 429.9302,244.2969 429.7427,244.3906 C429.3208,244.6563 428.6333,244.7813 427.8677,244.7813 C425.8208,244.7813 424.5239,243.6875 424.5239,241.9844 L424.5239,240.8906 C424.5239,239.1094 425.7739,237.7969 427.5083,237.7969 C428.0864,237.7969 428.6958,237.9531 429.1645,238.2031 C429.6489,238.4844 429.8208,238.7031 429.9145,239.1094 C429.977,239.5156 430.0083,239.6406 430.1489,239.7656 C430.2895,239.9063 430.5239,240.0156 430.7427,240.0156 C431.0083,240.0156 431.2739,239.875 431.4458,239.6563 C431.5552,239.5 431.5864,239.3125 431.5864,238.8906 L431.5864,237.4688 C431.5864,237.0313 431.5708,236.9063 431.477,236.75 C431.3208,236.4844 431.0395,236.3438 430.7427,236.3438 C430.4458,236.3438 430.2427,236.4375 430.0239,236.75 L429.852,236.6719 Z " fill="#000000"/><text fill="#000000" font-family="sans-serif" font-size="14" lengthAdjust="spacing" textLength="124" x="441.5083" y="245.8467">SubsystemClass3</text><line style="stroke:#181818;stroke-width:0.5;" x1="413.5083" x2="567.5083" y1="257" y2="257"/><line style="stroke:#181818;stroke-width:0.5;" x1="413.5083" x2="567.5083" y1="265" y2="265"/></g><!--class SubsystemClass4--><g id="elem_SubsystemClass4"><rect codeLine="24" fill="#F1F1F1" height="48" id="SubsystemClass4" rx="2.5" ry="2.5" style="stroke:#181818;stroke-width:0.5;" width="155" x="32.0083" y="225"/><ellipse cx="47.0083" cy="241" fill="#ADD1B2" rx="11" ry="11" style="stroke:#181818;stroke-width:1.0;"/><path d="M49.352,236.6719 C48.4145,236.2344 47.8208,236.0938 46.9458,236.0938 C44.3208,236.0938 42.3208,238.1719 42.3208,240.8906 L42.3208,242.0156 C42.3208,244.5938 44.4302,246.4844 47.3208,246.4844 C48.5395,246.4844 49.6958,246.1875 50.4458,245.6406 C51.0239,245.2344 51.352,244.7813 51.352,244.3906 C51.352,243.9375 50.9614,243.5469 50.4927,243.5469 C50.2739,243.5469 50.0708,243.625 49.8833,243.8125 C49.4302,244.2969 49.4302,244.2969 49.2427,244.3906 C48.8208,244.6563 48.1333,244.7813 47.3677,244.7813 C45.3208,244.7813 44.0239,243.6875 44.0239,241.9844 L44.0239,240.8906 C44.0239,239.1094 45.2739,237.7969 47.0083,237.7969 C47.5864,237.7969 48.1958,237.9531 48.6645,238.2031 C49.1489,238.4844 49.3208,238.7031 49.4145,239.1094 C49.477,239.5156 49.5083,239.6406 49.6489,239.7656 C49.7895,239.9063 50.0239,240.0156 50.2427,240.0156 C50.5083,240.0156 50.7739,239.875 50.9458,239.6563 C51.0552,239.5 51.0864,239.3125 51.0864,238.8906 L51.0864,237.4688 C51.0864,237.0313 51.0708,236.9063 50.977,236.75 C50.8208,236.4844 50.5395,236.3438 50.2427,236.3438 C49.9458,236.3438 49.7427,236.4375 49.5239,236.75 L49.352,236.6719 Z " fill="#000000"/><text fill="#000000" font-family="sans-serif" font-size="14" lengthAdjust="spacing" textLength="123" x="61.0083" y="245.8467">SubsystemClass4</text><line style="stroke:#181818;stroke-width:0.5;" x1="33.0083" x2="186.0083" y1="257" y2="257"/><line style="stroke:#181818;stroke-width:0.5;" x1="33.0083" x2="186.0083" y1="265" y2="265"/></g><!--class Client--><g id="elem_Client"><rect codeLine="5" fill="#F1F1F1" height="48" id="Client" rx="2.5" ry="2.5" style="stroke:#181818;stroke-width:0.5;" width="75" x="254.0083" y="31.5"/><ellipse cx="269.0083" cy="47.5" fill="#ADD1B2" rx="11" ry="11" style="stroke:#181818;stroke-width:1.0;"/><path d="M271.352,43.1719 C270.4145,42.7344 269.8208,42.5938 268.9458,42.5938 C266.3208,42.5938 264.3208,44.6719 264.3208,47.3906 L264.3208,48.5156 C264.3208,51.0938 266.4302,52.9844 269.3208,52.9844 C270.5395,52.9844 271.6958,52.6875 272.4458,52.1406 C273.0239,51.7344 273.352,51.2813 273.352,50.8906 C273.352,50.4375 272.9614,50.0469 272.4927,50.0469 C272.2739,50.0469 272.0708,50.125 271.8833,50.3125 C271.4302,50.7969 271.4302,50.7969 271.2427,50.8906 C270.8208,51.1563 270.1333,51.2813 269.3677,51.2813 C267.3208,51.2813 266.0239,50.1875 266.0239,48.4844 L266.0239,47.3906 C266.0239,45.6094 267.2739,44.2969 269.0083,44.2969 C269.5864,44.2969 270.1958,44.4531 270.6645,44.7031 C271.1489,44.9844 271.3208,45.2031 271.4145,45.6094 C271.477,46.0156 271.5083,46.1406 271.6489,46.2656 C271.7895,46.4063 272.0239,46.5156 272.2427,46.5156 C272.5083,46.5156 272.7739,46.375 272.9458,46.1563 C273.0552,46 273.0864,45.8125 273.0864,45.3906 L273.0864,43.9688 C273.0864,43.5313 273.0708,43.4063 272.977,43.25 C272.8208,42.9844 272.5395,42.8438 272.2427,42.8438 C271.9458,42.8438 271.7427,42.9375 271.5239,43.25 L271.352,43.1719 Z " fill="#000000"/><text fill="#000000" font-family="sans-serif" font-size="14" lengthAdjust="spacing" textLength="43" x="283.0083" y="52.3467">Client</text><line style="stroke:#181818;stroke-width:0.5;" x1="255.0083" x2="328.0083" y1="63.5" y2="63.5"/><line style="stroke:#181818;stroke-width:0.5;" x1="255.0083" x2="328.0083" y1="71.5" y2="71.5"/></g><!--class Facade--><g id="elem_Facade"><rect codeLine="7" fill="#F1F1F1" height="96.8906" id="Facade" rx="2.5" ry="2.5" style="stroke:#181818;stroke-width:0.5;" width="212" x="364.5083" y="7"/><ellipse cx="441.2583" cy="23" fill="#ADD1B2" rx="11" ry="11" style="stroke:#181818;stroke-width:1.0;"/><path d="M443.602,18.6719 C442.6645,18.2344 442.0708,18.0938 441.1958,18.0938 C438.5708,18.0938 436.5708,20.1719 436.5708,22.8906 L436.5708,24.0156 C436.5708,26.5938 438.6802,28.4844 441.5708,28.4844 C442.7895,28.4844 443.9458,28.1875 444.6958,27.6406 C445.2739,27.2344 445.602,26.7813 445.602,26.3906 C445.602,25.9375 445.2114,25.5469 444.7427,25.5469 C444.5239,25.5469 444.3208,25.625 444.1333,25.8125 C443.6802,26.2969 443.6802,26.2969 443.4927,26.3906 C443.0708,26.6563 442.3833,26.7813 441.6177,26.7813 C439.5708,26.7813 438.2739,25.6875 438.2739,23.9844 L438.2739,22.8906 C438.2739,21.1094 439.5239,19.7969 441.2583,19.7969 C441.8364,19.7969 442.4458,19.9531 442.9145,20.2031 C443.3989,20.4844 443.5708,20.7031 443.6645,21.1094 C443.727,21.5156 443.7583,21.6406 443.8989,21.7656 C444.0395,21.9063 444.2739,22.0156 444.4927,22.0156 C444.7583,22.0156 445.0239,21.875 445.1958,21.6563 C445.3052,21.5 445.3364,21.3125 445.3364,20.8906 L445.3364,19.4688 C445.3364,19.0313 445.3208,18.9063 445.227,18.75 C445.0708,18.4844 444.7895,18.3438 444.4927,18.3438 C444.1958,18.3438 443.9927,18.4375 443.7739,18.75 L443.602,18.6719 Z " fill="#000000"/><text fill="#000000" font-family="sans-serif" font-size="14" lengthAdjust="spacing" textLength="50" x="461.7583" y="27.8467">Facade</text><line style="stroke:#181818;stroke-width:0.5;" x1="365.5083" x2="575.5083" y1="39" y2="39"/><rect fill="none" height="6" style="stroke:#C82930;stroke-width:1.0;" width="6" x="372.5083" y="49.6484"/><text fill="#000000" font-family="sans-serif" font-size="14" lengthAdjust="spacing" textLength="186" x="384.5083" y="55.9951">linksToSubsystemObjects</text><rect fill="none" height="6" style="stroke:#C82930;stroke-width:1.0;" width="6" x="372.5083" y="65.9453"/><text fill="#000000" font-family="sans-serif" font-size="14" lengthAdjust="spacing" textLength="183" x="384.5083" y="72.292">optionalAdditionalFacade</text><line style="stroke:#181818;stroke-width:0.5;" x1="365.5083" x2="575.5083" y1="79.5938" y2="79.5938"/><ellipse cx="375.5083" cy="93.2422" fill="#84BE84" rx="3" ry="3" style="stroke:#038048;stroke-width:1.0;"/><text fill="#000000" font-family="sans-serif" font-size="14" lengthAdjust="spacing" textLength="160" x="384.5083" y="96.5889">subsystemOperation()</text></g><!--class AdditionalFacade--><g id="elem_AdditionalFacade"><rect codeLine="14" fill="#F1F1F1" height="80.5938" id="AdditionalFacade" rx="2.5" ry="2.5" style="stroke:#181818;stroke-width:0.5;" width="166" x="611.5083" y="15"/><ellipse cx="631.4583" cy="31" fill="#ADD1B2" rx="11" ry="11" style="stroke:#181818;stroke-width:1.0;"/><path d="M633.802,26.6719 C632.8645,26.2344 632.2708,26.0938 631.3958,26.0938 C628.7708,26.0938 626.7708,28.1719 626.7708,30.8906 L626.7708,32.0156 C626.7708,34.5938 628.8802,36.4844 631.7708,36.4844 C632.9895,36.4844 634.1458,36.1875 634.8958,35.6406 C635.4739,35.2344 635.802,34.7813 635.802,34.3906 C635.802,33.9375 635.4114,33.5469 634.9427,33.5469 C634.7239,33.5469 634.5208,33.625 634.3333,33.8125 C633.8802,34.2969 633.8802,34.2969 633.6927,34.3906 C633.2708,34.6563 632.5833,34.7813 631.8177,34.7813 C629.7708,34.7813 628.4739,33.6875 628.4739,31.9844 L628.4739,30.8906 C628.4739,29.1094 629.7239,27.7969 631.4583,27.7969 C632.0364,27.7969 632.6458,27.9531 633.1145,28.2031 C633.5989,28.4844 633.7708,28.7031 633.8645,29.1094 C633.927,29.5156 633.9583,29.6406 634.0989,29.7656 C634.2395,29.9063 634.4739,30.0156 634.6927,30.0156 C634.9583,30.0156 635.2239,29.875 635.3958,29.6563 C635.5052,29.5 635.5364,29.3125 635.5364,28.8906 L635.5364,27.4688 C635.5364,27.0313 635.5208,26.9063 635.427,26.75 C635.2708,26.4844 634.9895,26.3438 634.6927,26.3438 C634.3958,26.3438 634.1927,26.4375 633.9739,26.75 L633.802,26.6719 Z " fill="#000000"/><text fill="#000000" font-family="sans-serif" font-size="14" lengthAdjust="spacing" textLength="123" x="646.5583" y="35.8467">AdditionalFacade</text><line style="stroke:#181818;stroke-width:0.5;" x1="612.5083" x2="776.5083" y1="47" y2="47"/><text fill="#000000" font-family="sans-serif" font-size="14" lengthAdjust="spacing" textLength="15" x="617.5083" y="63.9951">...</text><line style="stroke:#181818;stroke-width:0.5;" x1="612.5083" x2="776.5083" y1="71.2969" y2="71.2969"/><ellipse cx="622.5083" cy="84.9453" fill="#84BE84" rx="3" ry="3" style="stroke:#038048;stroke-width:1.0;"/><text fill="#000000" font-family="sans-serif" font-size="14" lengthAdjust="spacing" textLength="140" x="631.5083" y="88.292">anotherOperation()</text></g><!--link Client to Facade--><g id="link_Client_Facade"><path codeLine="27" d="M329.2663,55.5 C339.2113,55.5 349.1553,55.5 359.1003,55.5 " fill="none" id="Client-to-Facade" style="stroke:#181818;stroke-width:1.0;"/><polygon fill="#181818" points="364.3003,55.5,355.3003,51.5,359.3003,55.5,355.3003,59.5,364.3003,55.5" style="stroke:#181818;stroke-width:1.0;"/></g><!--link Facade to AdditionalFacade--><g id="link_Facade_AdditionalFacade"><path codeLine="28" d="M576.8203,55.5 C586.6073,55.5 596.3943,55.5 606.1813,55.5 " fill="none" id="Facade-to-AdditionalFacade" style="stroke:#181818;stroke-width:1.0;"/><polygon fill="#181818" points="611.2993,55.5,602.2993,51.5,606.2993,55.5,602.2993,59.5,611.2993,55.5" style="stroke:#181818;stroke-width:1.0;"/></g><!--link Facade to SubsystemClass1--><g id="link_Facade_SubsystemClass1"><path codeLine="30" d="M522.9363,104.083 C563.6343,141.019 618.5793,190.886 651.9523,221.1753 " fill="none" id="Facade-to-SubsystemClass1" style="stroke:#181818;stroke-width:1.0;stroke-dasharray:7.0,7.0;"/><polygon fill="#181818" points="655.9123,224.7699,651.9357,215.7595,652.2097,221.4097,646.5595,221.6837,655.9123,224.7699" style="stroke:#181818;stroke-width:1.0;"/></g><!--link Facade to SubsystemClass2--><g id="link_Facade_SubsystemClass2"><path codeLine="31" d="M427.7993,104.33 C394.9473,141.12 350.7403,190.627 323.7283,220.8763 " fill="none" id="Facade-to-SubsystemClass2" style="stroke:#181818;stroke-width:1.0;stroke-dasharray:7.0,7.0;"/><polygon fill="#181818" points="320.1963,224.8314,329.1741,220.7819,323.5263,221.1017,323.2066,215.4539,320.1963,224.8314" style="stroke:#181818;stroke-width:1.0;"/></g><!--link Facade to SubsystemClass3--><g id="link_Facade_SubsystemClass3"><path codeLine="32" d="M475.5033,104.33 C479.2983,140.669 484.3903,189.416 487.5583,219.7565 " fill="none" id="Facade-to-SubsystemClass3" style="stroke:#181818;stroke-width:1.0;stroke-dasharray:7.0,7.0;"/><polygon fill="#181818" points="488.0883,224.8314,491.1317,215.4645,487.5688,219.8585,483.1749,216.2956,488.0883,224.8314" style="stroke:#181818;stroke-width:1.0;"/></g><!--link AdditionalFacade to SubsystemClass1--><g id="link_AdditionalFacade_SubsystemClass1"><path codeLine="34" d="M691.8143,96.179 C689.3083,133.096 685.6373,187.182 683.4193,219.8465 " fill="none" id="AdditionalFacade-to-SubsystemClass1" style="stroke:#181818;stroke-width:1.0;stroke-dasharray:7.0,7.0;"/><polygon fill="#181818" points="683.0763,224.8991,687.6768,216.1907,683.415,219.9106,679.6952,215.6488,683.0763,224.8991" style="stroke:#181818;stroke-width:1.0;"/></g><!--SRC=[ZL0zQyCm49sZNt5ZGx5faex1a9XsAntQhNGuMuUZM964Je66aFzU2SU6EgRj9Dtxq7iwRfLnwF403XjwGTye0ui7mJ_mfwz0tg0khROU6e-daM1hlIJVqPN6kXMYriWCfLPaGZyzOusIn5dCCj3AjFnktuuLdpZGuRNQKnquKTO5PMFSHahLtQx6sJtme7VaCR5tSt7f0suSCIhFysH4OyEE_CZcOjVO7uOQi5wNsXvbKS3v-kZ0bMbSJABBINGrYJwcu6una1NzKheZ0JUV6BZiGoBlI7v6rRZLtvhbFpGh8SRnlyP-0m00]--></g></svg>